#!OML:ASF H:\Dans Jumps\Project 1\Capture day 1\Session 1\subject.ASF
:FULLY-SPECIFIED
:DEGREES
470
root 0.301185 17.5138 3.33295 9.23079 0.856221 -0.784664
lowerback 2.15606 -0.506126 -1.8558
upperback -6.10748 -0.780444 0.195021
thorax -7.56061 -0.267335 1.31102
lowerneck -16.3044 -4.29316 -4.7244
upperneck 15.3778 -7.04138 11.9904
head 8.07586 -2.49086 3.93945
rclavicle 1.66482e-015 0
rhumerus -24.9967 -63.3143 -3.40787
rradius 32.23
rwrist 31.8124
rhand -27.2892 -41.4234
rfingers 7.12502
rthumb -0.699415 -71.402
lclavicle 1.66482e-015 0
lhumerus -23.8096 51.2306 4.49806
lradius 24.3127
lwrist 12.3599
lhand -34.4147 -2.25282
lfingers 7.12502
lthumb -7.57987 27.5914
rfemur -19.1991 -6.67641 17.5473
rtibia 31.7666
rfoot -18.8225 -7.61303
rtoes 10.8748
lfemur -17.7552 7.67158 -17.3708
ltibia 28.1925
lfoot -15.3649 10.2505
ltoes 5.80779
471
root 0.301406 17.5131 3.34388 9.24604 0.820089 -0.775766
lowerback 1.85204 -0.521932 -1.80391
upperback -5.95946 -0.792432 0.167541
thorax -7.22435 -0.282143 1.24913
lowerneck -16.4099 -4.32973 -4.87747
upperneck 14.7526 -6.98901 12.0279
head 7.89006 -2.4874 3.97457
rclavicle 1.83876e-015 5.76476e-015
rhumerus -24.0129 -60.5965 -5.13696
rradius 31.49
rwrist 32.6487
rhand -25.2698 -40.6221
rfingers 7.12502
rthumb 1.25098 -70.5981
lclavicle 1.83876e-015 5.76476e-015
lhumerus -23.1341 48.0248 6.17303
lradius 24.4223
lwrist 11.8217
lhand -33.5714 -2.6664
lfingers 7.12502
lthumb -6.76581 27.2055
rfemur -19.1819 -6.69907 17.5322
rtibia 31.7737
rfoot -18.8474 -7.57474
rtoes 10.7811
lfemur -17.7143 7.68826 -17.3854
ltibia 28.1797
lfoot -15.3844 10.2951
ltoes 5.70863
472
root 0.301701 17.5131 3.35452 9.29992 0.738585 -0.734144
lowerback 1.5086 -0.518676 -1.79875
upperback -5.81166 -0.78106 0.134278
thorax -6.86719 -0.282891 1.20516
lowerneck -16.2959 -4.39468 -4.95534
upperneck 13.9301 -6.9545 11.9417
head 7.59558 -2.51266 3.95311
rclavicle 6.17475e-015 3.97569e-015
rhumerus -23.0621 -57.0985 -6.85908
rradius 30.8477
rwrist 33.0047
rhand -22.9176 -39.2466
rfingers 7.12502
rthumb 3.52263 -69.1972
lclavicle 6.17475e-015 3.97569e-015
lhumerus -22.2786 43.9762 8.20185
lradius 24.6587
lwrist 12.17
lhand -32.1818 -3.09214
lfingers 7.12502
lthumb -5.4243 26.8184
rfemur -19.2246 -6.72879 17.4821
rtibia 31.787
rfoot -18.8596 -7.48371
rtoes 10.9265
lfemur -17.7046 7.71639 -17.4453
ltibia 28.1579
lfoot -15.3949 10.3483
ltoes 5.62278
473
root 0.300452 17.5136 3.36112 9.34354 0.682374 -0.788973
lowerback 1.2207 -0.517932 -1.70492
upperback -5.66162 -0.768697 0.122432
thorax -6.54162 -0.286696 1.13477
lowerneck -16.4122 -4.42246 -5.01318
upperneck 13.2778 -6.89244 11.8771
head 7.39685 -2.50765 3.94005
rclavicle -1.07282e-014 -3.97569e-015
rhumerus -22.1672 -53.9025 -8.52036
rradius 30.1734
rwrist 34.1733
rhand -20.5525 -37.6417
rfingers 7.12502
rthumb 5.80641 -67.5421
lclavicle -1.07282e-014 -3.97569e-015
lhumerus -21.4718 39.2627 10.2125
lradius 24.9291
lwrist 12.6859
lhand -33.0939 -3.03443
lfingers 7.12502
lthumb -6.30491 26.8517
rfemur -19.2599 -6.6511 17.5484
rtibia 31.7803
rfoot -18.8567 -7.50477
rtoes 10.7051
lfemur -17.7191 7.69517 -17.3847
ltibia 28.1579
lfoot -15.3889 10.4448
ltoes 5.58737
474
root 0.301183 17.5132 3.37128 9.36731 0.616182 -0.782295
lowerback 0.889487 -0.519741 -1.65873
upperback -5.48877 -0.761798 0.104437
thorax -6.1674 -0.291099 1.08452
lowerneck -16.3946 -4.47463 -5.14272
upperneck 12.5614 -6.84518 11.8143
head 7.15873 -2.51912 3.93909
rclavicle 4.19933e-015 3.77691e-015
rhumerus -21.2229 -50.4403 -10.1989
rradius 29.5326
rwrist 35.3821
rhand -17.4593 -34.9893
rfingers 7.12502
rthumb 8.79216 -64.7862
lclavicle 4.19933e-015 3.77691e-015
lhumerus -20.8553 35.104 11.9114
lradius 24.9864
lwrist 11.6162
lhand -31.9177 -3.66322
lfingers 7.12502
lthumb -5.16929 26.2537
rfemur -19.2545 -6.69174 17.5323
rtibia 31.7731
rfoot -18.8642 -7.42459
rtoes 10.5838
lfemur -17.6946 7.73139 -17.4033
ltibia 28.1602
lfoot -15.4352 10.4821
ltoes 5.62541
475
root 0.30007 17.5121 3.38047 9.35731 0.520014 -0.860001
lowerback 0.624196 -0.496709 -1.54283
upperback -5.33096 -0.719692 0.106678
thorax -5.84973 -0.279866 1.01534
lowerneck -16.3804 -4.51087 -5.19714
upperneck 11.8507 -6.78111 11.6631
head 6.91665 -2.52507 3.89939
rclavicle 7.97623e-015 -7.55382e-015
rhumerus -20.3685 -46.7293 -11.8179
rradius 28.979
rwrist 36.4543
rhand -15.1089 -33.1136
rfingers 7.12502
rthumb 11.0598 -62.8022
lclavicle 7.97623e-015 -7.55382e-015
lhumerus -20.1775 31.0428 13.5947
lradius 24.9555
lwrist 10.4667
lhand -31.4997 -4.19385
lfingers 7.12502
lthumb -4.76565 25.7325
rfemur -19.2162 -6.59866 17.6101
rtibia 31.7522
rfoot -18.8792 -7.42972
rtoes 10.5488
lfemur -17.6408 7.73056 -17.3148
ltibia 28.1799
lfoot -15.4646 10.5977
ltoes 5.61121
476
root 0.29963 17.5109 3.38927 9.32898 0.434004 -0.862512
lowerback 0.343424 -0.484928 -1.50837
upperback -5.13421 -0.696336 0.0973733
thorax -5.48188 -0.274572 0.980784
lowerneck -16.4596 -4.54378 -5.36484
upperneck 11.22 -6.7152 11.6403
head 6.72644 -2.51815 3.92162
rclavicle -6.67171e-015 -9.93923e-016
rhumerus -19.4595 -42.2922 -13.5553
rradius 28.6078
rwrist 36.9451
rhand -12.9205 -31.7665
rfingers 7.12502
rthumb 13.1698 -61.3306
lclavicle -6.67171e-015 -9.93923e-016
lhumerus -19.7009 26.4801 15.2386
lradius 25.1772
lwrist 9.53862
lhand -31.316 -4.4214
lfingers 7.12502
lthumb -4.58827 25.5089
rfemur -19.1568 -6.53093 17.5962
rtibia 31.7373
rfoot -18.893 -7.39632
rtoes 10.7074
lfemur -17.5676 7.73146 -17.3073
ltibia 28.1978
lfoot -15.5135 10.6819
ltoes 5.69634
477
root 0.29928 17.5093 3.39776 9.27642 0.381848 -0.908348
lowerback 0.0859554 -0.485991 -1.42248
upperback -4.92975 -0.688419 0.107993
thorax -5.12022 -0.27843 0.939256
lowerneck -16.532 -4.56849 -5.4181
upperneck 10.5524 -6.63367 11.4377
head 6.51124 -2.51361 3.8681
rclavicle -8.01351e-016 -6.36111e-015
rhumerus -18.6274 -38.1516 -15.1407
rradius 28.2436
rwrist 37.9915
rhand -10.9554 -30.3476
rfingers 7.12502
rthumb 15.0635 -59.7796
lclavicle -8.01351e-016 -6.36111e-015
lhumerus -19.2608 22.7066 16.7288
lradius 25.3079
lwrist 7.65667
lhand -30.9904 -4.6384
lfingers 7.12502
lthumb -4.27386 25.2985
rfemur -19.0589 -6.52461 17.6309
rtibia 31.719
rfoot -18.9161 -7.33241
rtoes 10.5746
lfemur -17.4679 7.70351 -17.247
ltibia 28.2249
lfoot -15.553 10.7826
ltoes 5.65786
478
root 0.296974 17.508 3.40261 9.22522 0.321516 -0.938874
lowerback -0.138207 -0.466747 -1.36889
upperback -4.72717 -0.655995 0.105452
thorax -4.78112 -0.268408 0.901678
lowerneck -16.5171 -4.61652 -5.41933
upperneck 9.76305 -6.58163 11.18
head 6.24234 -2.53034 3.78612
rclavicle 6.62201e-015 5.56597e-015
rhumerus -17.9653 -33.939 -16.5899
rradius 28.0359
rwrist 39.1043
rhand -8.98793 -28.8869
rfingers 7.12502
rthumb 16.9581 -58.1666
lclavicle 6.62201e-015 5.56597e-015
lhumerus -18.8851 18.9522 18.1329
lradius 25.5873
lwrist 5.94398
lhand -30.3083 -4.9706
lfingers 7.12502
lthumb -3.61518 24.9785
rfemur -18.9866 -6.4133 17.6573
rtibia 31.7078
rfoot -18.921 -7.37823
rtoes 10.6022
lfemur -17.3978 7.72075 -17.1997
ltibia 28.2535
lfoot -15.5875 10.8335
ltoes 5.64895
